<svg width="30" height="30" viewBox="0 0 30 30" fill="none" xmlns="http://www.w3.org/2000/svg">
<path fill-rule="evenodd" clip-rule="evenodd" d="M8.58941 6.12633C8.58941 2.74737 11.3368 0 14.7157 0C18.0947 0 20.8421 2.74737 20.8421 6.12633C20.8421 9.50528 18.0947 12.2527 14.7157 12.2527C11.3368 12.2527 8.58941 9.50528 8.58941 6.12633ZM14.4947 8.52633L17.6526 5.36843C18.0315 4.98954 18.0315 4.42106 17.5895 4.07372C17.2421 3.72637 16.6421 3.72637 16.2948 4.07372L13.8 6.56849L12.8842 5.65267C12.5368 5.30533 11.9368 5.30533 11.5895 5.65267C11.2421 6.00001 11.2421 6.60004 11.5895 6.94738L13.1684 8.52633C13.3579 8.71579 13.6105 8.81057 13.8315 8.81057C14.0841 8.81057 14.3052 8.71578 14.4947 8.52633ZM27.0315 10.5474H21C20.5894 11.1159 20.1157 11.6527 19.5474 12.0948H27.0316C27.5053 12.0948 27.8842 12.4737 27.8842 12.9474V27.6316C27.8842 28.1053 27.5053 28.4842 27.0316 28.4842H2.39995C1.92627 28.4842 1.54737 28.1053 1.54737 27.6316V12.9158C1.54737 12.4421 1.92627 12.0632 2.39995 12.0632H9.88418C9.34738 11.6211 8.84202 11.1158 8.43157 10.5158H2.39998C1.07371 10.5158 0 11.5895 0 12.9158V27.6C0 28.9263 1.07371 30 2.39998 30H27.0316C28.3579 30 29.4316 28.9263 29.4316 27.6V12.9158C29.4316 11.6211 28.3579 10.5474 27.0316 10.5474L27.0315 10.5474ZM14.0526 23.6527C13.8631 22.2316 12.8525 21.0948 11.5578 20.6527C10.8947 21.0632 10.0736 21.3158 9.22094 21.3158C8.36836 21.3158 7.57888 21.0948 6.88406 20.6527C5.58935 21.0632 4.57874 22.2316 4.3893 23.6527L4.13673 25.4211C4.07361 25.8948 4.42096 26.3053 4.89465 26.3053H13.4841C13.9578 26.3053 14.3052 25.8948 14.2421 25.4211L14.0526 23.6527ZM12.221 17.2106C12.221 18.8843 10.863 20.2106 9.22099 20.2106C7.57893 20.2106 6.22098 18.8526 6.22098 17.2106C6.22098 15.5368 7.57893 14.2106 9.22099 14.2106C10.8947 14.2106 12.221 15.5685 12.221 17.2106ZM24.5368 16.8H17.3684C16.9578 16.8 16.6105 16.4527 16.6105 16.0421C16.6105 15.6315 16.9578 15.2842 17.3684 15.2842H24.5052C24.9158 15.2842 25.2632 15.6315 25.2632 16.0421C25.2632 16.4527 24.9474 16.8 24.5368 16.8ZM17.3684 21.0316H24.5368C24.9474 21.0316 25.2947 20.6843 25.2631 20.2737C25.2631 19.8631 24.9158 19.5158 24.5052 19.5158H17.3684C16.9578 19.5158 16.6105 19.8631 16.6105 20.2737C16.6105 20.6843 16.9578 21.0316 17.3684 21.0316ZM24.5368 25.2632H17.3684C16.9578 25.2632 16.6105 24.9159 16.6105 24.5053C16.6105 24.0947 16.9578 23.7474 17.3684 23.7474H24.5052C24.9158 23.7474 25.2631 24.0947 25.2631 24.5053C25.2947 24.9474 24.9474 25.2632 24.5368 25.2632Z" fill="white"/>
</svg>
