<svg width="30" height="30" viewBox="0 0 30 30" fill="none" xmlns="http://www.w3.org/2000/svg">
<path fill-rule="evenodd" clip-rule="evenodd" d="M16.0423 9.97435C16.615 10.1033 17.1611 10.3297 17.657 10.6437L17.8404 10.5501L18.5704 10.1781L19.1496 10.7577L19.7278 11.3366L19.3558 12.0669L19.2622 12.2499V12.25C19.5763 12.7458 19.8029 13.2919 19.9319 13.8646L20.1266 13.928L20.9059 14.1811V15.8197L20.1266 16.0731L19.9314 16.1366L19.9315 16.1364C19.8029 16.7091 19.5764 17.2553 19.2622 17.751L19.3558 17.9344L19.7278 18.6644L19.1482 19.2436L18.569 19.8228L17.8403 19.4513L17.6569 19.3577L17.657 19.3576C17.1611 19.6716 16.6149 19.8979 16.0423 20.0266L15.9788 20.2218L15.7258 21.0011H14.0873L13.8349 20.2222L13.7705 20.0267C13.1979 19.8978 12.6517 19.6714 12.1558 19.3573L11.9724 19.4509L11.2424 19.8225L10.6633 19.2437L10.0841 18.6644L10.4561 17.9344L10.5493 17.751H10.5492C10.2353 17.2551 10.0089 16.709 9.87989 16.1364L9.68469 16.073L8.90548 15.8196V14.1811L9.68469 13.928L9.87989 13.8645C10.009 13.292 10.2353 12.7458 10.5492 12.25L10.456 12.067L10.0841 11.3366L10.6633 10.7574L11.2424 10.1778L11.9724 10.5498L12.1558 10.6434C12.6518 10.3295 13.198 10.1032 13.7705 9.97436L13.834 9.77916L14.0874 8.99995H15.726L15.9791 9.77916L16.0425 9.97436L16.0423 9.97435ZM3.8724 11.4565C4.40335 9.81099 5.29477 8.30457 6.48174 7.04745C7.6686 5.79018 9.1211 4.81352 10.7333 4.18856C10.8936 4.12671 11.0086 3.98393 11.0352 3.81423C11.0616 3.64443 10.9955 3.47345 10.8618 3.36561C10.7281 3.25787 10.5469 3.22958 10.3868 3.29143C8.64045 3.96751 7.06712 5.02499 5.78174 6.38687C4.49637 7.74856 3.53129 9.38023 2.95715 11.1626C2.91642 11.2845 2.92617 11.4175 2.98417 11.5322C3.04227 11.6468 3.14378 11.7334 3.26608 11.7727C3.38849 11.812 3.52141 11.8007 3.63536 11.7412C3.74931 11.6818 3.83474 11.5793 3.87258 11.4565L3.8724 11.4565ZM18.9487 4.13889C20.5144 4.72406 21.9355 5.64015 23.1149 6.82454C24.2944 8.00904 25.2045 9.43399 25.7831 11.002C25.827 11.122 25.9169 11.2195 26.0329 11.2732C26.1487 11.3269 26.2812 11.3324 26.4012 11.2883C26.5211 11.2444 26.6186 11.1546 26.6723 11.0387C26.726 10.9228 26.7314 10.7903 26.6875 10.6704C26.0607 8.97176 25.0749 7.42837 23.797 6.14574C22.5193 4.86305 20.9799 3.87127 19.2837 3.238C19.1228 3.17818 18.9421 3.20873 18.8097 3.31818C18.6773 3.42773 18.6134 3.59946 18.6421 3.76883C18.6708 3.9382 18.7876 4.07936 18.9486 4.1393L18.9487 4.13889ZM25.7773 19.0118L25.7772 19.0117C25.2149 20.5307 24.3412 21.9154 23.2123 23.0767C22.0833 24.2381 20.724 25.1507 19.2217 25.7559C19.062 25.8198 18.9487 25.9641 18.9243 26.1342C18.9 26.3044 18.9683 26.4747 19.1034 26.5809C19.2386 26.6871 19.4201 26.7132 19.5797 26.6492C21.2075 25.9938 22.6803 25.0053 23.9037 23.7472C25.1269 22.489 26.0736 20.989 26.683 19.3436C26.7423 19.182 26.7108 19.0011 26.6006 18.869C26.4903 18.737 26.3179 18.6737 26.1483 18.7032C25.9789 18.7326 25.8379 18.8503 25.7786 19.0118L25.7773 19.0118ZM10.7666 25.8243C9.17983 25.2155 7.7461 24.266 6.56637 23.0428C5.38659 21.8195 4.48979 20.3522 3.93903 18.7443C3.88383 18.5813 3.74587 18.4603 3.57713 18.4267C3.40841 18.393 3.23455 18.452 3.12113 18.5812C3.00761 18.7105 2.97181 18.8905 3.02701 19.0534C3.62387 20.7954 4.59559 22.3851 5.87356 23.7106C7.15163 25.0361 8.70501 26.065 10.424 26.7248C10.5849 26.786 10.7664 26.7568 10.8999 26.6479C11.0334 26.5391 11.0988 26.3673 11.0713 26.1973C11.0439 26.0273 10.9278 25.8848 10.7668 25.8235L10.7666 25.8243ZM14.9065 2.92405e-08C15.6842 2.92405e-08 16.4301 0.30905 16.9801 0.858958C17.53 1.40887 17.8389 2.15485 17.8389 2.93252C17.8389 3.71033 17.53 4.45618 16.9801 5.00619C16.4301 5.5561 15.6842 5.86504 14.9065 5.86504C14.1287 5.86504 13.3829 5.5561 12.8328 5.00619C12.2829 4.45618 11.974 3.71031 11.974 2.93252C11.9739 2.15482 12.2828 1.40887 12.8327 0.858848C13.3827 0.308831 14.1287 -0.000109738 14.9065 2.92405e-08ZM26.9554 12.0682C27.7332 12.0682 28.4791 12.3772 29.0291 12.9272C29.579 13.4771 29.8879 14.223 29.8879 15.0007C29.8879 15.7785 29.579 16.5244 29.0291 17.0743C28.4791 17.6243 27.7332 17.9333 26.9554 17.9333C26.1777 17.9333 25.4318 17.6243 24.8818 17.0743C24.3319 16.5244 24.0229 15.7785 24.0229 15.0007C24.0229 14.223 24.3319 13.4771 24.8818 12.9272C25.4319 12.3772 26.1777 12.0682 26.9554 12.0682ZM14.9065 24.135C15.6842 24.135 16.4301 24.4439 16.9801 24.9938C17.53 25.5438 17.8389 26.2897 17.8389 27.0675C17.8389 27.8452 17.53 28.5911 16.9801 29.141C16.4301 29.6911 15.6842 30 14.9065 30C14.1287 30 13.3829 29.6911 12.8328 29.141C12.2829 28.5911 11.974 27.8452 11.974 27.0675C11.974 26.2897 12.2829 25.5438 12.8328 24.9938C13.3829 24.4439 14.1287 24.135 14.9065 24.135ZM2.93252 12.0682C3.71033 12.0682 4.45618 12.3772 5.00619 12.9272C5.5561 13.4771 5.86504 14.223 5.86504 15.0007C5.86504 15.7785 5.5561 16.5244 5.00619 17.0743C4.45618 17.6243 3.71031 17.9333 2.93252 17.9333C2.15482 17.9333 1.40895 17.6243 0.858958 17.0743C0.30905 16.5244 0 15.7785 0 15.0007C0 14.223 0.308941 13.477 0.858848 12.9271C1.40887 12.377 2.15485 12.0681 2.93252 12.0682ZM14.9063 11.8772C14.0778 11.8771 13.2833 12.206 12.6974 12.7917C12.1114 13.3774 11.7821 14.1718 11.7821 15.0003C11.7819 15.8287 12.1109 16.6232 12.6967 17.2092C13.2825 17.795 14.0769 18.1242 14.9054 18.1243C15.7338 18.1243 16.5283 17.7953 17.1141 17.2095C17.7001 16.6237 18.0291 15.8291 18.0291 15.0007C18.0291 14.1724 17.7002 13.378 17.1146 12.7923C16.5288 12.2066 15.7345 11.8774 14.9063 11.8772Z" fill="white"/>
</svg>
