<svg width="24" height="24" viewBox="0 0 24 24" fill="none" xmlns="http://www.w3.org/2000/svg">
<path fill-rule="evenodd" clip-rule="evenodd" d="M20.3923 1.60046H3.60615C2.50479 1.60046 1.60037 2.5049 1.60037 3.60623V20.3935C1.60037 21.4949 2.50481 22.3993 3.60615 22.3993H20.3934C21.4948 22.3993 22.3992 21.4948 22.3992 20.3935L22.3981 3.60623C22.3981 2.50487 21.4937 1.60046 20.3924 1.60046H20.3923ZM13.5143 10.5166H20.0631C20.5049 10.5166 20.8633 10.875 20.8633 11.3168V20.0631C20.8633 20.5049 20.5049 20.8633 20.0631 20.8633H13.5143C13.0725 20.8633 12.7141 20.5049 12.7141 20.0631V11.3168C12.7141 10.875 13.0715 10.5166 13.5143 10.5166ZM19.2629 12.117V19.2629H14.3146V12.117H19.2629ZM3.93557 3.13534H10.4843C10.9261 3.13534 11.2846 3.49378 11.2846 3.93557V12.6819C11.2846 13.1237 10.9261 13.4821 10.4843 13.4821H3.93557C3.49378 13.4821 3.13534 13.1237 3.13534 12.6819V3.93557C3.13534 3.49378 3.49378 3.13534 3.93557 3.13534ZM9.68522 4.7358V11.8816H4.7358V4.7358H9.68522ZM4.7358 19.2629V16.5112H9.68411V19.2629H4.7358ZM10.4843 20.8633H3.93557C3.49378 20.8633 3.13534 20.5049 3.13534 20.0631V15.711C3.13534 15.2692 3.49378 14.9107 3.93557 14.9107H10.4843C10.9261 14.9107 11.2846 15.2692 11.2846 15.711V20.0631C11.2846 20.5049 10.9272 20.8633 10.4843 20.8633ZM14.3146 7.48748V4.7358H19.2629V7.48748H14.3146ZM20.0631 9.08794H13.5143C13.0725 9.08794 12.7141 8.7295 12.7141 8.28771V3.93557C12.7141 3.49378 13.0725 3.13534 13.5143 3.13534H20.0631C20.5049 3.13534 20.8633 3.49378 20.8633 3.93557V8.2866C20.8633 8.72944 20.5049 9.08787 20.0631 9.08787V9.08794ZM3.60637 0H20.3936C22.3786 0 24 1.62131 24 3.60637V20.3936C24 22.3786 22.3787 24 20.3936 24L3.60637 23.999C1.62142 23.999 0 22.3776 0 20.3926V3.60644C0 1.62149 1.62131 6.95322e-05 3.60637 6.95322e-05V0Z" fill="white"/>
</svg>
