<svg width="29" height="30" viewBox="0 0 29 30" fill="none" xmlns="http://www.w3.org/2000/svg">
<path fill-rule="evenodd" clip-rule="evenodd" d="M21.3117 7.39376L15.789 7.40317V4.26612H17.2347C17.3764 4.26612 17.4992 4.18585 17.5559 4.05829C17.6174 3.93073 17.5937 3.78424 17.4992 3.68038L14.3573 0.118147C14.2912 0.0425199 14.1968 0 14.0928 0C13.9936 0 13.8944 0.0425199 13.8283 0.118147L10.6912 3.68038C10.5968 3.78436 10.5731 3.93073 10.6346 4.05829C10.6912 4.18585 10.814 4.26612 10.9558 4.26612H12.3966V7.41734L6.85983 7.42676C6.85513 7.42676 6.8504 7.42795 6.84567 7.42913L6.84566 7.42914C6.84093 7.43033 6.83619 7.43152 6.83149 7.43152L13.7479 12.7557C13.9557 12.9116 14.2392 12.9116 14.4424 12.7557L21.3353 7.39835C21.3306 7.39835 21.327 7.39719 21.3235 7.39603C21.3199 7.39487 21.3164 7.3937 21.3117 7.3937V7.39376ZM15.0801 3.91174V8.52731L13.1053 8.53207V3.91168C13.1053 3.71802 12.9494 3.55736 12.751 3.55736H11.7399L14.0928 0.888191L16.4502 3.55747H15.4345C15.236 3.55736 15.0801 3.71803 15.0801 3.91168V3.91174ZM13.3181 13.3181L12.3875 12.6L6.86936 16.8851H6.88353L21.3352 16.8473H21.3446L15.8077 12.5906L14.8771 13.3134C14.6503 13.4929 14.3715 13.5827 14.0976 13.5827C13.8235 13.5827 13.5448 13.4977 13.3181 13.3182L13.3181 13.3181ZM24.7699 10.5685L28.1524 19.5635L28.1523 19.5639C28.1759 19.6064 28.1855 19.6537 28.1855 19.7104L28.1853 29.6457C28.1853 29.8393 28.0294 30 27.831 30H0.354435C0.160776 30 0.000110726 29.8393 0.000110726 29.6457L0 19.7104C0 19.673 0.00927654 19.6404 0.0185671 19.6077L0.018568 19.6077L0.0189342 19.6064C0.0213148 19.6041 0.0213148 19.6005 0.0213148 19.597C0.0213148 19.5934 0.0213148 19.5899 0.0236954 19.5875L0.0284567 19.5781V19.5687L3.4158 10.5688C3.46784 10.4319 3.60005 10.3421 3.74654 10.3421H6.25039L6.24563 8.04605C6.24563 7.99809 6.25772 7.9541 6.27074 7.90674L6.27074 7.90673L6.27398 7.89491L11.8063 12.1516L6.28815 16.4412C6.27398 16.3893 6.26457 16.3326 6.26457 16.2711L6.25039 11.0507H3.99213L0.864719 19.356H8.96713C8.97183 19.356 8.97538 19.3572 8.97892 19.3584C8.98246 19.3596 8.98601 19.3608 8.99071 19.3608C9.00965 19.3608 9.02847 19.3656 9.0474 19.375C9.07575 19.3797 9.09945 19.3845 9.12303 19.3939L9.16555 19.4222C9.1741 19.4291 9.18266 19.4353 9.19099 19.4413L9.19102 19.4414L9.19104 19.4414C9.20566 19.452 9.2196 19.4621 9.23165 19.4742L9.26 19.5167C9.27417 19.5403 9.28834 19.5686 9.29776 19.597L9.30006 19.5989L9.30284 19.6008C9.30534 19.6023 9.30717 19.6034 9.30717 19.6064L9.84574 21.3732H18.3447L18.8834 19.6066C18.8834 19.6019 18.888 19.5924 18.8928 19.5877C18.8974 19.569 18.9067 19.555 18.916 19.541L18.9164 19.5404L18.9255 19.5249C18.9368 19.5052 18.9488 19.4845 18.9637 19.4695C18.9708 19.4624 18.9778 19.4577 18.9849 19.453C18.992 19.4482 18.9991 19.4435 19.0062 19.4364L19.0121 19.432C19.0298 19.4185 19.0511 19.4024 19.0723 19.3939C19.0909 19.3845 19.1094 19.3799 19.128 19.3752L19.129 19.375C19.1334 19.3741 19.1379 19.373 19.1424 19.3719L19.1524 19.3692C19.1682 19.365 19.1841 19.3608 19.1999 19.3608C19.2025 19.3608 19.2047 19.3604 19.2068 19.3599L19.2116 19.3584C19.2152 19.3572 19.2187 19.356 19.2234 19.356H27.321L24.1933 11.0507H21.9304L21.9446 16.2332C21.9446 16.2899 21.9352 16.3418 21.921 16.3985L16.3887 12.1418L21.8927 7.85671C21.8955 7.86625 21.8986 7.87579 21.9016 7.88533C21.9137 7.92304 21.9258 7.9607 21.9258 7.99844L21.9305 10.3417H24.4391C24.5856 10.3417 24.718 10.4315 24.7699 10.5685ZM8.66938 25.7381H19.5211C19.7147 25.7381 19.8754 25.5776 19.8754 25.3838C19.8754 25.1854 19.7147 25.0295 19.5211 25.0295H8.66938C8.47096 25.0295 8.31506 25.1854 8.31506 25.3838C8.31506 25.5775 8.47096 25.7381 8.66938 25.7381ZM19.781 3.56224C19.9747 3.56224 20.1353 3.40157 20.1353 3.20791V0.354324C20.1353 0.160665 19.9747 0 19.781 0C19.5872 0 19.4267 0.155903 19.4267 0.354324V3.21245C19.4267 3.40622 19.5872 3.56212 19.781 3.56212V3.56224ZM20.1353 5.17796C20.1353 5.37162 19.9747 5.53228 19.781 5.53228C19.5872 5.53228 19.4267 5.37162 19.4267 5.17796V4.86139C19.4267 4.66773 19.5873 4.50706 19.781 4.50706C19.9747 4.50706 20.1353 4.66773 20.1353 4.86139V5.17796ZM8.55118 3.56224C8.74484 3.56224 8.90551 3.40157 8.90551 3.20791V0.354324C8.90551 0.160665 8.74484 0 8.55118 0C8.35752 0 8.19686 0.155903 8.19686 0.354324V3.21245C8.19686 3.40622 8.35276 3.56212 8.55118 3.56212V3.56224ZM8.90551 5.17796C8.90551 5.37162 8.74484 5.53228 8.55118 5.53228C8.35276 5.53228 8.19686 5.37162 8.19686 5.17796V4.86139C8.19686 4.66773 8.35752 4.50706 8.55118 4.50706C8.74484 4.50706 8.90551 4.66773 8.90551 4.86139V5.17796Z" fill="white"/>
</svg>
