<svg width="12" height="19" viewBox="0 0 12 19" fill="none" xmlns="http://www.w3.org/2000/svg">
<path fill-rule="evenodd" clip-rule="evenodd" d="M2.5 5C3.88071 5 5 3.88071 5 2.5C5 1.11929 3.88071 0 2.5 0C1.11929 0 0 1.11929 0 2.5C0 3.88071 1.11929 5 2.5 5ZM9.5 5C10.8807 5 12 3.88071 12 2.5C12 1.11929 10.8807 0 9.5 0C8.11929 0 7 1.11929 7 2.5C7 3.88071 8.11929 5 9.5 5ZM2.5 12C3.88071 12 5 10.8807 5 9.5C5 8.11929 3.88071 7 2.5 7C1.11929 7 0 8.11929 0 9.5C0 10.8807 1.11929 12 2.5 12ZM9.5 12C10.8807 12 12 10.8807 12 9.5C12 8.11929 10.8807 7 9.5 7C8.11929 7 7 8.11929 7 9.5C7 10.8807 8.11929 12 9.5 12ZM5 16.5C5 17.8807 3.88071 19 2.5 19C1.11929 19 0 17.8807 0 16.5C0 15.1193 1.11929 14 2.5 14C3.88071 14 5 15.1193 5 16.5ZM12 16.5C12 17.8807 10.8807 19 9.5 19C8.11929 19 7 17.8807 7 16.5C7 15.1193 8.11929 14 9.5 14C10.8807 14 12 15.1193 12 16.5Z" fill="#D9D9D9"/>
</svg>
