<svg width="22" height="16" viewBox="0 0 22 16" fill="none" xmlns="http://www.w3.org/2000/svg">
<path d="M19.6682 16H2.23281C1.00061 15.9991 0.00177083 15.0002 0 13.7672V2.23281C0.00184461 0.99969 1.00069 0.000787034 2.23281 0H19.6682C20.9004 0.000922305 21.8992 0.999769 21.901 2.23281V13.7672C21.8991 15.0003 20.9003 15.9992 19.6682 16ZM2.16749 14.5215C2.30768 14.5271 19.5908 14.5271 19.7329 14.5215L15.3233 8.23983C14.1483 9.52921 13.0693 10.7135 12.3167 11.5391H12.3158C11.957 11.9071 11.4645 12.1137 10.9507 12.1137C10.4361 12.1137 9.94358 11.9061 9.58481 11.5381L6.57815 8.23989L2.16749 14.5215ZM16.3414 7.12185L20.4253 12.938V2.63871C19.2826 3.89304 17.7903 5.53106 16.3414 7.12204V7.12185ZM1.47569 2.63851V12.9388L5.55961 7.12264L1.47569 2.63851ZM7.0593 6.57683L10.6755 10.5447C10.7456 10.6221 10.8452 10.6655 10.9504 10.6664C11.0546 10.6664 11.1551 10.6221 11.2252 10.5447C13.1344 8.45095 17.139 4.05438 19.4881 1.47468L2.41261 1.47561C2.4412 1.50604 7.03427 6.55099 7.05926 6.57677L7.0593 6.57683Z" fill="#939598"/>
</svg>
