<svg width="18" height="20" viewBox="0 0 18 20" fill="none" xmlns="http://www.w3.org/2000/svg">
<path d="M3.71847 18.0151C4.53908 19.2578 5.91784 20 7.40653 20H12.8463C15.2829 20 17.2652 18.0177 17.2652 15.5812V7.67411C17.2652 6.52037 16.326 5.58116 15.1722 5.58116C14.928 5.58116 14.6926 5.62302 14.4746 5.70064V3.48825C14.4746 2.33451 13.5354 1.3953 12.3816 1.3953C12.1087 1.3953 11.8496 1.44762 11.6107 1.54268C11.3683 0.654916 10.5555 0 9.59105 0C8.4373 0 7.4981 0.939204 7.4981 2.09295V2.91007C7.2792 2.83246 7.04462 2.7906 6.80045 2.7906C5.6467 2.7906 4.7075 3.7298 4.7075 4.88355V11.4589L3.57295 10.3244C2.78199 9.53257 1.40242 9.53518 0.613057 10.3235C0.21802 10.7186 0 11.2444 0 11.8034C0 12.3363 0.197965 12.8386 0.558994 13.2275L3.71925 18.015L3.71847 18.0151ZM1.59929 11.3108C1.73097 11.1791 1.90626 11.1068 2.092 11.1068C2.27862 11.1068 2.4539 11.1791 2.58558 11.3108L4.91145 13.6367C5.11202 13.8373 5.41201 13.8966 5.67189 13.7876C5.93265 13.6794 6.10269 13.4248 6.10269 13.1431L6.10181 4.88386C6.10181 4.49927 6.41488 4.18621 6.79946 4.18621C7.18405 4.18621 7.49711 4.49927 7.49711 4.88386V10.0003C7.49711 10.3858 7.80931 10.698 8.19476 10.698C8.58022 10.698 8.89241 10.3858 8.89241 10.0003V2.09326C8.89241 1.70868 9.20548 1.39561 9.59006 1.39561C9.97464 1.39561 10.2877 1.70868 10.2877 2.09326V10.0003C10.2877 10.3858 10.5999 10.698 10.9854 10.698C11.3708 10.698 11.683 10.3858 11.683 10.0003V3.48856C11.683 3.10398 11.9961 2.79091 12.3807 2.79091C12.7652 2.79091 13.0783 3.10398 13.0783 3.48856V10.0003C13.0783 10.3858 13.3905 10.698 13.776 10.698C14.1614 10.698 14.4736 10.3858 14.4736 10.0003V7.67445C14.4736 7.28987 14.7867 6.97681 15.1713 6.97681C15.5558 6.97681 15.8689 7.28987 15.8689 7.67445V15.5815C15.8689 17.248 14.5128 18.605 12.8454 18.605H7.40558C6.38701 18.605 5.44435 18.0975 4.88269 17.2472L1.68764 12.4063C1.66148 12.3671 1.63183 12.3304 1.5987 12.2973C1.46701 12.1656 1.39463 11.9903 1.39463 11.8037C1.39463 11.6171 1.46701 11.4418 1.59957 11.3101L1.59929 11.3108Z" fill="#939598"/>
</svg>
