<svg width="28" height="30" viewBox="0 0 28 30" fill="none" xmlns="http://www.w3.org/2000/svg">
<path fill-rule="evenodd" clip-rule="evenodd" d="M16.6628 4.5063H14.7875C13.8896 4.5063 13.1565 3.77321 13.1565 2.87533V0.999994C13.1565 0.965084 13.1286 0.937156 13.0937 0.937156H1.63101C1.2498 0.937156 0.937007 1.24994 0.937007 1.63116V22.9997C0.937007 23.3809 1.2498 23.6937 1.63101 23.6937H14.9373C14.9932 23.6937 15.0211 23.6267 14.982 23.5876C14.5003 23.1072 13.6974 22.4146 13.6555 21.8253C13.5926 20.9177 14.6832 20.9652 15.2808 21.1705C16.148 21.4679 17.0654 22.9899 18.1769 23.6784C18.7899 24.0568 19.2047 24.04 19.7828 23.663L20.3595 23.2078L20.5717 22.8503C20.5913 22.8168 20.5773 22.7749 20.541 22.761L13.6763 19.9654L12.7184 18.8762C12.6849 18.8371 12.7086 18.7771 12.7603 18.7729L14.2056 18.6626L15.2347 19.0829C15.4232 19.2016 15.6466 19.2896 15.8924 19.3538L27.0146 23.8779C27.0914 23.9086 27.1277 23.9952 27.0956 24.0734L26.678 25.0969C26.6473 25.1737 26.5607 25.21 26.4825 25.1779L24.1017 24.2088C24.0654 24.1935 24.0249 24.2158 24.0165 24.2535L23.5166 26.5771C23.3463 27.366 23.6353 27.7096 23.458 27.7096L17.3851 27.7124C17.353 27.7124 17.3279 27.6886 17.3237 27.6579L17.2594 27.1664C17.1798 26.2029 16.564 25.3804 15.9357 24.6529C15.9231 24.6389 15.9077 24.632 15.8882 24.632H1.63097C0.733087 24.632 0 23.8989 0 23.001V1.63097C0 0.733088 0.733087 0 1.63097 0H13.626C13.7572 0 13.8759 0.0530608 13.9597 0.141035L17.5246 3.70593C17.6168 3.79809 17.6614 3.91678 17.6614 4.03686V16.7983C17.6614 16.8333 17.6908 16.8612 17.7257 16.8612L19.5857 16.8095C20.0814 16.7955 20.5087 16.9128 20.929 17.1754L22.3952 18.0956C22.9188 18.4237 23.2665 18.8887 23.4327 19.4836L24.0122 21.5558C24.0262 21.6061 23.9759 21.6494 23.9284 21.6312L21.7068 20.7306C21.5951 20.7012 21.1594 20.5644 21.1273 20.4904C21.0672 20.3549 20.7182 19.5632 20.0297 19.3006C19.3497 19.0423 18.766 18.9376 18.0399 18.9697C17.431 18.9976 16.7301 19.0339 16.1352 18.9055L15.5711 18.6821L15.532 18.6527C15.1284 18.3469 15.0656 17.8764 15.1871 17.4086C15.2415 17.1991 15.4286 17.0665 15.5906 16.9338C15.6018 16.924 15.6143 16.9198 15.6283 16.9198L16.6658 16.8905C16.6993 16.8891 16.7273 16.8612 16.7273 16.8276V4.56752C16.7245 4.53401 16.6965 4.50608 16.663 4.50608L16.6628 4.5063ZM24.0732 28.5827H16.8946C16.8597 28.5827 16.8317 28.6106 16.8317 28.6455V29.9372C16.8317 29.9721 16.8597 30 16.8946 30H24.0732C24.1081 30 24.1361 29.9721 24.1361 29.9372V28.6455C24.1347 28.6106 24.1067 28.5827 24.0732 28.5827ZM8.89463 7.43162C9.83997 7.43162 10.6108 8.20382 10.6108 9.14775V11.5774C10.6108 11.6123 10.6387 11.6403 10.6736 11.6403H11.5533C11.7767 11.6403 11.9611 11.456 11.9611 11.2325V5.71373C11.9611 5.69418 11.9541 5.67882 11.9387 5.66625L8.93507 3.08575C8.91133 3.0648 8.87782 3.0648 8.85408 3.08575L5.85041 5.66625C5.83645 5.67882 5.82807 5.69418 5.82807 5.71373V11.2325C5.82807 11.4559 6.01239 11.6403 6.23583 11.6403H7.11554C7.15045 11.6403 7.17838 11.6123 7.17838 11.5774V9.14775C7.17838 8.20379 7.94918 7.43162 8.89451 7.43162H8.89463ZM9.57326 8.46912C8.96306 7.85891 7.93252 8.30435 7.93252 9.14775V11.5774C7.93252 11.6123 7.96045 11.6403 7.99536 11.6403H9.7939C9.82881 11.6403 9.85673 11.6123 9.85673 11.5774V9.14775C9.85673 8.89222 9.7534 8.64926 9.57326 8.46912ZM9.52299 6.17626C10.0815 5.61771 9.68358 4.6584 8.89462 4.6584C8.10567 4.6584 7.70629 5.61771 8.26624 6.17626C8.61254 6.52396 9.17666 6.52396 9.52299 6.17626ZM4.00034 13.8661H13.6271C13.8854 13.8661 14.0963 13.6566 14.0963 13.3969C14.0963 13.1386 13.8868 12.9277 13.6271 12.9277H4.00034C3.74201 12.9277 3.53115 13.1372 3.53115 13.3969C3.53115 13.6566 3.74201 13.8661 4.00034 13.8661ZM10.1653 19.0495L9.12078 20.855C9.0356 21.003 8.87641 21.2515 8.72559 21.3842C8.68929 21.4163 8.63343 21.3968 8.62366 21.3493C8.53149 20.9066 8.51613 20.4961 8.51893 20.0492C8.5287 18.8595 7.62805 18.4434 6.99547 19.312C6.93822 19.3902 6.74133 19.7127 6.6366 19.9306C6.61146 19.9822 6.53606 19.9752 6.5207 19.9208C6.34336 19.2952 6.1004 18.6989 5.46085 18.8735C5.13829 18.9629 4.57834 19.7812 4.38703 20.0618C4.24181 20.2755 4.29627 20.5659 4.50991 20.7126C4.72356 20.8578 5.01401 20.8033 5.16063 20.5897C5.26257 20.4403 5.41477 20.2294 5.55859 20.0451C5.5935 19.999 5.6675 20.0228 5.6703 20.08C5.69264 20.4822 5.7848 21.2376 6.24282 21.4275C6.85303 21.683 7.17142 20.9807 7.47303 20.3691C7.50236 20.3104 7.59033 20.33 7.59173 20.3956C7.6015 20.8103 7.63641 21.2655 7.73695 21.6453C7.89474 22.2458 8.35556 22.5865 8.9881 22.317C9.40423 22.1397 9.71702 21.7012 9.93624 21.3228L10.9807 19.5173C11.1106 19.2939 11.0338 19.0076 10.8104 18.8777C10.58 18.7493 10.2937 18.8261 10.1652 19.0495L10.1653 19.0495ZM4.00034 16.515H13.6271C13.8854 16.515 14.0963 16.3056 14.0963 16.0458C14.0963 15.7875 13.8868 15.5767 13.6271 15.5767H4.00034C3.74201 15.5767 3.53115 15.7861 3.53115 16.0458C3.53115 16.3056 3.74201 16.515 4.00034 16.515Z" fill="white"/>
</svg>
