<svg width="26" height="30" viewBox="0 0 26 30" fill="none" xmlns="http://www.w3.org/2000/svg">
<path d="M20.9715 27.353L22.6968 26.3568V28.2851C22.6968 29.2298 21.9263 30 20.9819 30L1.71493 29.9999C0.770213 29.9999 0 29.2294 0 28.285V4.64294C0 3.69822 0.770538 2.92801 1.71493 2.92801H5.30358V4.65329H1.7252V28.2745H20.9713V27.3528L20.9715 27.353ZM20.9715 13.1678L22.6968 14.1641V4.64315C22.6968 3.69844 21.9263 2.92822 20.9819 2.92822H17.3932V4.6535H20.9716V13.168L20.9715 13.1678ZM11.3482 5.09925H6.16073V2.92806C6.16073 2.62287 6.28298 2.36021 6.51681 2.16398C6.75033 1.96774 7.03018 1.89225 7.33083 1.94472L9.33079 2.29437V2.01747C9.33079 0.90323 10.234 0 11.3483 0C12.4625 0 13.3657 0.90323 13.3657 2.01747V2.29437L15.3657 1.94472C15.6664 1.89215 15.9462 1.96742 16.1797 2.16398C16.4132 2.36023 16.5358 2.62287 16.5358 2.92806V5.09925H11.3482ZM11.3482 2.55868C11.6922 2.55868 11.9728 2.27819 11.9728 1.93405C11.9728 1.59003 11.6923 1.30942 11.3482 1.30942C11.0042 1.30942 10.7236 1.58992 10.7236 1.93405C10.7236 2.27808 11.004 2.55868 11.3482 2.55868ZM10.6594 9.0909H18.2175C18.4542 9.0909 18.6462 8.89888 18.6462 8.6625C18.6462 8.42614 18.4541 8.2338 18.2175 8.2338H10.6594C10.4226 8.2338 10.231 8.42583 10.231 8.6625C10.231 8.89929 10.423 9.0909 10.6594 9.0909ZM10.6594 11.6072H18.2175C18.4542 11.6072 18.6462 11.4151 18.6462 11.1785C18.6462 10.9417 18.4541 10.7498 18.2175 10.7498H10.6594C10.4226 10.7498 10.231 10.9418 10.231 11.1785C10.231 11.4153 10.423 11.6072 10.6594 11.6072ZM19.623 19.7674L25.1553 16.5733L23.6869 15.7256L18.1541 18.9194L19.623 19.7674ZM19.6237 13.3797L14.0914 16.5738L15.5549 17.4187L21.087 14.2243L19.6237 13.3795L19.6237 13.3797ZM16.8706 19.1639L15.9852 18.6529V20.0383L16.8706 20.5494V19.1639ZM20.0523 20.5068V26.8939L25.583 23.7009V17.3138L20.0523 20.5068ZM19.1952 20.5059L17.7264 19.6578V21.2914C17.7264 21.4444 17.6466 21.5858 17.514 21.6623C17.4463 21.7006 17.3724 21.7198 17.2987 21.7198C17.2251 21.7198 17.1511 21.7007 17.0863 21.6623L15.3422 20.6567C15.2092 20.5799 15.1298 20.4388 15.1298 20.2854V18.1587L13.665 17.3129V23.7011L19.1956 26.8941V20.5059L19.1952 20.5059ZM16.4121 17.9138L17.2982 18.4253L22.8302 15.2309L21.9452 14.7199L16.4124 17.9137L16.4121 17.9138ZM8.86838 18.347C8.86838 18.5996 8.66179 18.8062 8.40917 18.8062H4.64378C4.39115 18.8062 4.18457 18.5996 4.18457 18.347V14.5816C4.18457 14.329 4.39116 14.1224 4.64378 14.1224H8.40917C8.66179 14.1224 8.86838 14.329 8.86838 14.5816V18.347ZM7.89737 15.364C7.73005 15.1967 7.45865 15.1967 7.2912 15.364L6.08743 16.5678L5.82668 16.1164C5.70929 15.9121 5.44854 15.8417 5.24426 15.9591C5.03999 16.0765 4.96958 16.3372 5.08697 16.5415L5.62693 17.4771C5.76575 17.7188 6.1043 17.7632 6.2998 17.5676L7.89733 15.9701C8.06465 15.8028 8.06465 15.5313 7.89733 15.3639L7.89737 15.364ZM8.86838 11.8035C8.86838 12.0561 8.66179 12.2627 8.40917 12.2627H4.64378C4.39115 12.2627 4.18457 12.0561 4.18457 11.8035V8.03806C4.18457 7.78543 4.39116 7.57885 4.64378 7.57885H8.40917C8.66179 7.57885 8.86838 7.78544 8.86838 8.03806V11.8035ZM7.89737 8.82043C7.73005 8.65311 7.45865 8.65311 7.2912 8.82043L6.08743 10.0242L5.82668 9.57281C5.70929 9.36854 5.44854 9.29813 5.24426 9.41551C5.03999 9.53291 4.96958 9.79365 5.08697 9.99793L5.62693 10.9336C5.76575 11.1752 6.1043 11.2197 6.2998 11.024L7.89733 9.4265C8.06465 9.25918 8.06465 8.98778 7.89733 8.82033L7.89737 8.82043ZM8.86838 21.1249V24.8903C8.86838 25.1429 8.66179 25.3495 8.40917 25.3495H4.64378C4.39115 25.3495 4.18457 25.1429 4.18457 24.8903V21.1249C4.18457 20.8723 4.39116 20.6657 4.64378 20.6657H8.40917C8.66179 20.6657 8.86838 20.8723 8.86838 21.1249ZM7.89737 21.9075C7.73005 21.7402 7.45865 21.7402 7.2912 21.9075L6.08743 23.1113L5.82668 22.6599C5.70929 22.4556 5.44854 22.3852 5.24426 22.5026C5.03999 22.62 4.96958 22.8807 5.08697 23.085L5.62693 24.0206C5.76575 24.2623 6.1043 24.3067 6.2998 24.1111L7.89733 22.5136C8.06465 22.3462 8.06465 22.0748 7.89733 21.9074L7.89737 21.9075Z" fill="white"/>
</svg>
