<svg width="17" height="20" viewBox="0 0 17 20" fill="none" xmlns="http://www.w3.org/2000/svg">
<path opacity="0.5" d="M14.1193 7.05839V5.88178C14.1193 2.63888 11.4802 0 8.23627 0C4.99236 0 2.35324 2.63913 2.35324 5.88178V7.05839C1.05358 7.05839 0 8.11196 0 9.41162V17.6468C0.00117193 18.9464 1.05475 20 2.35324 20H14.1183C15.418 20 16.4715 18.9464 16.4715 17.6468V9.41162C16.4715 8.11196 15.418 7.05839 14.1195 7.05839H14.1193ZM4.70635 5.88178C4.70635 3.93521 6.28962 2.35186 8.23627 2.35186C10.1829 2.35186 11.7662 3.93514 11.7662 5.88178V7.05839H4.7066L4.70635 5.88178ZM9.41307 14.1182C9.41307 14.7674 8.88687 15.2948 8.23647 15.2948C7.58721 15.2948 7.05986 14.7686 7.05986 14.1182V11.7649C7.05986 11.1157 7.58724 10.5883 8.23647 10.5883C8.8857 10.5883 9.41307 11.1145 9.41307 11.7649V14.1182Z" fill="#939598"/>
</svg>
