<svg width="30" height="30" viewBox="0 0 30 30" fill="none" xmlns="http://www.w3.org/2000/svg">
<path fill-rule="evenodd" clip-rule="evenodd" d="M21.1623 7.05817L16.4323 2.82642V7.05975L21.1623 7.05817ZM6.81876 9.69761V6.37865H2.44107V9.69761H6.81876ZM7.55642 6.01V10.0665C7.55621 10.2702 7.39107 10.4353 7.18739 10.4353H2.07213C1.9743 10.4353 1.8806 10.3964 1.81143 10.3272C1.74226 10.2582 1.7034 10.1644 1.7034 10.0665V6.01C1.7034 5.80631 1.86844 5.64116 2.07214 5.64098H7.1874C7.28522 5.64098 7.37913 5.67984 7.4483 5.74901C7.51757 5.81828 7.55642 5.91207 7.55642 6.01ZM6.81876 17.7001V14.3814H2.44107V17.7001H6.81876ZM7.55642 14.0122V18.069V18.0689C7.55642 18.2727 7.39117 18.4379 7.18739 18.4379H2.07213C1.9743 18.4379 1.8805 18.3991 1.81133 18.3298C1.74216 18.2606 1.7034 18.1667 1.7034 18.0689V14.0126C1.7034 13.8089 1.86854 13.6439 2.07214 13.6439H7.1874C7.39109 13.6439 7.55624 13.8089 7.55642 14.0126L7.55642 14.0122ZM5.83268 6.82516C5.90185 6.75599 5.99565 6.71723 6.09348 6.71723C6.1913 6.71723 6.28511 6.75609 6.35417 6.82536C6.49818 6.96937 6.49807 7.20286 6.35407 7.34687L4.44941 9.25192L4.44931 9.25182C4.3053 9.39582 4.07181 9.39582 3.9277 9.25182L2.90533 8.22945C2.76133 8.08493 2.76164 7.85103 2.90616 7.70703C3.05068 7.56292 3.28458 7.56333 3.42869 7.70785L4.19007 8.46923L5.83442 6.82516L5.83268 6.82516ZM5.37396 14.7751H5.37406C5.44282 14.7046 5.53703 14.6645 5.63568 14.6639C5.73423 14.6633 5.82896 14.7023 5.89865 14.7719C5.96833 14.8416 6.00719 14.9364 6.00657 15.0349C6.00595 15.1335 5.96596 15.2277 5.89535 15.2965L5.15099 16.0412L5.89535 16.7856C6.03935 16.9296 6.03925 17.1631 5.89525 17.3071C5.75114 17.451 5.51764 17.451 5.37364 17.3069L4.62867 16.5625L3.88535 17.3069C3.74144 17.451 3.50785 17.451 3.36384 17.3071C3.21984 17.1631 3.21974 16.9296 3.36364 16.7856L4.10831 16.0412L3.36364 15.2965C3.29457 15.2274 3.25571 15.1336 3.25571 15.0357C3.25582 14.9379 3.29468 14.8441 3.36385 14.775C3.50785 14.631 3.74145 14.6311 3.88535 14.7751L4.62868 15.5195L5.37303 14.7751L5.37396 14.7751ZM2.07215 21.0536C1.87279 21.0476 1.71426 20.8843 1.71426 20.6848C1.71426 20.4853 1.8728 20.3219 2.07215 20.3159H7.69725C7.79704 20.3129 7.89373 20.3505 7.96537 20.42C8.0369 20.4894 8.07742 20.585 8.07742 20.6848C8.07742 20.7846 8.0369 20.88 7.96537 20.9496C7.89372 21.0191 7.79703 21.0566 7.69725 21.0536L2.07215 21.0536ZM2.07215 23.4367V23.4366C1.86836 23.4366 1.70313 23.2715 1.70313 23.0677C1.70313 22.8639 1.86837 22.6986 2.07215 22.6986H7.69725C7.90105 22.6986 8.06628 22.8639 8.06628 23.0677C8.06628 23.2715 7.90104 23.4366 7.69725 23.4366L2.07215 23.4367ZM2.07215 25.8193C1.87279 25.8134 1.71426 25.65 1.71426 25.4505C1.71426 25.2509 1.8728 25.0876 2.07215 25.0817H7.69725C7.79704 25.0786 7.89373 25.1161 7.96537 25.1857C8.0369 25.2551 8.07742 25.3507 8.07742 25.4505C8.07742 25.5503 8.0369 25.6457 7.96537 25.7153C7.89372 25.7848 7.79703 25.8223 7.69725 25.8193L2.07215 25.8193ZM2.07215 28.2024V28.2023C1.87279 28.1963 1.71426 28.0329 1.71426 27.8335C1.71426 27.634 1.8728 27.4706 2.07215 27.4646H7.69725C7.79704 27.4616 7.89373 27.4992 7.96537 27.5686C8.0369 27.6381 8.07742 27.7337 8.07742 27.8334C8.07742 27.9332 8.0369 28.0288 7.96537 28.0983C7.89372 28.1677 7.79703 28.2053 7.69725 28.2023L2.07215 28.2024ZM14.4742 11.8003C14.1933 12.0804 14.0357 12.4611 14.0362 12.8579V12.9109H14.1416V12.8572V12.8573C14.1419 12.5252 14.2612 12.2043 14.4778 11.9527C14.6945 11.7012 14.9942 11.5356 15.3224 11.4861C15.6507 11.4365 15.9859 11.5063 16.2671 11.6826C16.5485 11.8591 16.7571 12.1305 16.8554 12.4476C16.9537 12.7647 16.935 13.1066 16.8029 13.4111C16.6707 13.7157 16.4337 13.9628 16.135 14.1076C15.9354 14.2005 15.7671 14.3494 15.6503 14.536C15.5336 14.7226 15.4735 14.9391 15.4772 15.1592V16.0925H15.5832V15.1592H15.5833C15.5818 14.9594 15.6375 14.7635 15.7438 14.5943C15.8502 14.4251 16.0026 14.2899 16.1832 14.2045C16.5812 14.0136 16.8747 13.6569 16.9851 13.2295C17.0955 12.8021 17.0116 12.3477 16.7558 11.988C16.5002 11.6282 16.0987 11.3997 15.6587 11.3635C15.2188 11.3272 14.7853 11.4871 14.4742 11.8003ZM13.2986 12.8579C13.2983 12.3234 13.4896 11.8065 13.8379 11.4011C14.1862 10.9957 14.6684 10.7286 15.1968 10.6484C15.7252 10.5682 16.2649 10.6802 16.7178 10.9641C17.1708 11.2479 17.5068 11.6847 17.6652 12.1952C17.8234 12.7058 17.7934 13.2561 17.5804 13.7463C17.3675 14.2365 16.9857 14.6341 16.5046 14.867C16.449 14.892 16.4017 14.9323 16.368 14.9832C16.3369 15.0363 16.3215 15.0971 16.3233 15.1586V16.0919C16.3228 16.2876 16.2447 16.4751 16.1059 16.6133C15.9676 16.7519 15.7798 16.8298 15.5839 16.8296H15.4783C15.2825 16.8298 15.0948 16.7518 14.9565 16.6133C14.9472 16.6041 14.9384 16.5942 14.9303 16.5839C14.8078 16.4491 14.74 16.2734 14.74 16.0913V15.158C14.7383 14.7997 14.8386 14.4482 15.029 14.1447C15.2194 13.8411 15.4921 13.5978 15.8152 13.4432C15.9558 13.3755 16.0674 13.2595 16.1297 13.1164C16.192 12.9734 16.201 12.8126 16.1549 12.6636C16.1088 12.5144 16.0108 12.3868 15.8786 12.3038C15.7465 12.2209 15.5889 12.1881 15.4346 12.2114C15.2803 12.2346 15.1395 12.3125 15.0378 12.4307C14.9359 12.549 14.88 12.6999 14.88 12.8559V12.9089C14.8799 13.1043 14.8019 13.2916 14.6633 13.4293C14.525 13.568 14.3371 13.646 14.1413 13.646H14.0359C13.8402 13.6457 13.6526 13.5678 13.5141 13.4294C13.3757 13.2909 13.2979 13.1034 13.2976 12.9076V12.8546L13.2986 12.8579ZM15.5093 17.6085V17.6086C15.501 17.6012 15.4903 17.5972 15.4793 17.5975C15.4709 17.5973 15.4627 17.5997 15.4556 17.6042L15.4502 17.6096L15.4503 17.6095C15.4426 17.6172 15.4382 17.6276 15.4382 17.6386C15.4382 17.6494 15.4426 17.6598 15.4503 17.6675C15.4583 17.6749 15.469 17.679 15.4799 17.6789C15.4883 17.6789 15.4967 17.6766 15.5039 17.6722L15.5093 17.6668C15.5247 17.6506 15.5247 17.6251 15.5093 17.6089V17.6085ZM15.4793 16.8598V16.8599C15.6854 16.8598 15.8832 16.9418 16.0286 17.0879C16.1742 17.2339 16.2561 17.4317 16.2561 17.6378C16.2561 17.8441 16.1742 18.0419 16.0286 18.1879C16.0199 18.1968 16.0109 18.2051 16.0013 18.2128C15.8539 18.3479 15.6598 18.4207 15.4601 18.416C15.2602 18.4113 15.0699 18.3296 14.9289 18.1879C14.783 18.042 14.701 17.8441 14.701 17.6378C14.701 17.4316 14.783 17.2337 14.9289 17.0879C14.9376 17.0789 14.9469 17.0709 14.9562 17.0628C15.0991 16.9322 15.2857 16.8598 15.4792 16.8599L15.4793 16.8598ZM20.9495 13.5263V13.5264C19.7175 14.0938 18.7614 15.1272 18.2913 16.3994C17.8213 17.6716 17.8758 19.0784 18.4427 20.3105C19.0101 21.5425 20.0435 22.4985 21.3157 22.9687C22.5879 23.4387 23.9947 23.3843 25.2268 22.8173C26.4589 22.2501 27.4152 21.2168 27.8855 19.9445C28.3558 18.6724 28.3015 17.2655 27.7346 16.0334C27.1673 14.8016 26.1339 13.8454 24.8616 13.3752C23.5894 12.9052 22.1826 12.9596 20.9505 13.5267L20.9495 13.5263ZM17.2489 18.5576C16.9981 18.7523 16.7324 18.9267 16.454 19.0794C16.1591 19.2407 15.8507 19.3758 15.5323 19.4833C14.5302 19.1374 13.6364 18.5349 12.94 17.7357C12.187 16.872 11.6561 15.8376 11.3932 14.7223V11.2273C12.1159 11.2197 12.8314 11.0864 13.5083 10.8333C14.2429 10.5525 14.9266 10.1531 15.532 9.65098C16.1375 10.1532 16.8213 10.5526 17.5563 10.8333C18.233 11.0868 18.9486 11.2204 19.671 11.2284V13.4231V13.423C18.8654 14.0037 18.2205 14.7794 17.7969 15.6776C17.3732 16.5758 17.1847 17.5668 17.2489 18.5577V18.5576ZM19.3156 22.645V24.4097L11.7491 24.4098V21.4838H18.2648C18.561 21.9165 18.9144 22.3072 19.3154 22.6452L19.3156 22.645ZM21.7566 12.4739H21.7567C21.3822 12.5619 21.0174 12.6865 20.6673 12.8459C20.6504 12.8522 20.634 12.8598 20.6184 12.8686C20.5477 12.9019 20.4777 12.9353 20.409 12.971V10.8536C20.409 10.65 20.244 10.4849 20.0403 10.4849C20.0255 10.4848 20.0107 10.4857 19.996 10.4876C19.2526 10.5209 18.5101 10.4039 17.813 10.1435C17.0631 9.85378 16.3724 9.42968 15.7746 8.89221C15.6352 8.76975 15.4262 8.77067 15.288 8.89458C14.6906 9.43091 14.0007 9.85406 13.2519 10.1435C12.5458 10.4069 11.7934 10.5235 11.0406 10.4863C10.9431 10.4817 10.8477 10.5163 10.7758 10.5823C10.7038 10.6483 10.6611 10.7404 10.6572 10.8379V14.7633C10.6572 14.799 10.6624 14.8346 10.6726 14.8689C10.9621 16.1108 11.5523 17.2624 12.3913 18.2227C13.2012 19.1526 14.2493 19.8441 15.4229 20.2227C15.4959 20.2462 15.5745 20.2462 15.6476 20.2227C16.0493 20.095 16.4375 19.9284 16.8069 19.7254C16.9987 19.6208 17.1848 19.5068 17.3652 19.3834C17.454 19.8004 17.5881 20.2063 17.7652 20.5941C17.7715 20.611 17.7789 20.6275 17.7876 20.6434C17.8038 20.6767 17.8209 20.7123 17.8372 20.7467L11.3798 20.7468C11.1761 20.747 11.0112 20.9121 11.0112 21.1157V24.779C11.0112 24.9826 11.1761 25.1478 11.3798 25.1479H19.6842C19.8879 25.1477 20.0528 24.9826 20.0528 24.779V23.1739C20.5805 23.4938 21.1554 23.7283 21.7562 23.869V29.4458V29.4457C21.7558 29.5923 21.6973 29.7328 21.5936 29.8364C21.4899 29.94 21.3495 29.9984 21.2028 29.9988H0.553358C0.406775 29.9984 0.266271 29.94 0.162562 29.8364C0.0589638 29.7328 0.000517226 29.5923 0 29.4457V2.92469C0.000515405 2.77811 0.0590667 2.63771 0.162665 2.534C0.266366 2.4304 0.406764 2.37185 0.553356 2.37134H15.6954V7.42617C15.6953 7.62903 15.8591 7.79387 16.0621 7.79519H21.7561V12.4732L21.7566 12.4739ZM23.9803 12.3885H23.9804C23.4891 12.3124 22.9902 12.2994 22.4957 12.3499V7.42701C22.4957 7.32248 22.4513 7.22301 22.3734 7.15333L16.3329 1.75201C16.2633 1.67624 16.1652 1.63326 16.0623 1.63336H2.22412V0.553358C2.22453 0.406775 2.28287 0.266271 2.38647 0.162562C2.49017 0.0588609 2.63057 0.000414309 2.77716 0H23.4272C23.5737 0.00041233 23.7141 0.0588609 23.8177 0.162562C23.9214 0.266263 23.9798 0.406764 23.9801 0.553358V12.3889L23.9803 12.3885ZM28.8137 28.208L26.9911 29.0467L27.1198 29.4247C27.1285 29.4507 27.1385 29.4754 27.1492 29.4993V29.4994C27.2497 29.7058 27.429 29.863 27.6468 29.9354C27.8857 30.0198 28.1459 30.0215 28.3858 29.9404C28.4204 29.9287 28.4543 29.9153 28.4875 29.9001C28.5211 29.8845 28.554 29.8672 28.5858 29.8484C28.8033 29.7193 28.9712 29.521 29.0625 29.2851C29.1496 29.0724 29.1472 28.8336 29.0559 28.6227C29.0449 28.5991 29.0323 28.5752 29.0178 28.5507L28.8144 28.2081L28.8137 28.208ZM26.385 27.2604L25.1558 23.6453C25.2746 23.6009 25.3928 23.5516 25.5105 23.4976C25.5274 23.4913 25.5437 23.4837 25.5594 23.4749C25.6763 23.4203 25.7907 23.3624 25.9028 23.3013L27.8504 26.5854L26.3838 27.2604L26.385 27.2604ZM28.2291 27.222L28.4364 27.5714L26.7536 28.3457L26.6229 27.961L28.2291 27.222H28.2291ZM18.6765 16.5424C19.0534 15.5215 19.7728 14.663 20.7117 14.1129C21.6508 13.563 22.7515 13.3556 23.8264 13.5262C24.9012 13.6968 25.8835 14.2348 26.6063 15.0485C27.3289 15.8623 27.747 16.9013 27.7893 17.9888C27.8316 19.0763 27.4955 20.1448 26.8384 21.0122C26.1813 21.8796 25.2437 22.4924 24.1852 22.7459C23.127 22.9996 22.0135 22.8784 21.0347 22.4031C20.0558 21.9278 19.2718 21.1277 18.8166 20.1392C18.5576 19.5784 18.4118 18.972 18.3878 18.3549C18.3638 17.7376 18.4619 17.1217 18.6766 16.5425L18.6765 16.5424ZM21.4291 14.5667C22.5493 14.0511 23.8457 14.0857 24.9368 14.6606C26.0279 15.2354 26.7895 16.285 26.9976 17.5006C27.2057 18.7161 26.8367 19.9593 25.999 20.8644C25.1614 21.7695 23.9505 22.2336 22.7226 22.12C21.4946 22.0064 20.3893 21.3281 19.7319 20.2847C19.0744 19.2414 18.9397 17.9516 19.3672 16.7947C19.731 15.8075 20.473 15.0057 21.4292 14.5667L21.4291 14.5667ZM22.7191 17.6819C22.5546 17.6323 22.412 17.5277 22.3153 17.3857C22.2186 17.2435 22.1736 17.0726 22.1878 16.9013C22.1874 16.6624 22.2823 16.4333 22.4515 16.2647C22.5285 16.1874 22.6188 16.1248 22.7181 16.0796V17.6833L22.7191 17.6819ZM23.4567 18.6589C23.6214 18.7085 23.7641 18.813 23.8608 18.9552C23.9575 19.0973 24.0027 19.2683 23.9884 19.4396C23.9885 19.6784 23.8937 19.9075 23.7247 20.0763C23.6476 20.1534 23.5573 20.2161 23.4581 20.2612V18.6603L23.4567 18.6589ZM22.7198 15.0125C22.7258 14.8131 22.8892 14.6546 23.0886 14.6546C23.2881 14.6546 23.4515 14.8131 23.4575 15.0125V15.3062C23.8183 15.3898 24.1401 15.5931 24.3706 15.8829C24.6011 16.1728 24.7266 16.5321 24.7269 16.9025C24.7209 17.1019 24.5575 17.2604 24.358 17.2604C24.1586 17.2604 23.9952 17.1019 23.9892 16.9025C23.9892 16.6637 23.8943 16.4346 23.7255 16.2659C23.6484 16.1888 23.558 16.1261 23.4588 16.0808V17.8828C24.1302 18.0592 24.7282 18.3368 24.7282 19.4408C24.728 19.8112 24.6024 20.1705 24.3719 20.4604C24.1415 20.7504 23.8196 20.9536 23.4588 21.0371V21.3308C23.4529 21.5303 23.2895 21.6887 23.09 21.6887C22.8905 21.6887 22.7271 21.5303 22.7211 21.3308V21.0371C22.3604 20.9536 22.0384 20.7504 21.808 20.4605C21.5775 20.1705 21.4521 19.8112 21.4521 19.4408C21.4491 19.3411 21.4866 19.2444 21.5561 19.1728C21.6256 19.1011 21.7211 19.0607 21.8209 19.0607C21.9207 19.0607 22.0163 19.1011 22.0857 19.1728C22.1552 19.2444 22.1927 19.3411 22.1897 19.4408C22.1894 19.6797 22.2843 19.9088 22.4534 20.0775C22.5304 20.1547 22.6208 20.2174 22.7201 20.2624V18.4605C22.0491 18.2841 21.451 18.0065 21.451 16.9025C21.4511 16.5321 21.5766 16.1728 21.807 15.8829C22.0375 15.5929 22.3593 15.3896 22.7201 15.3062V15.0125L22.7198 15.0125ZM22.4958 23.9932V27.6265H23.4291C23.5757 27.6261 23.7162 27.5676 23.8198 27.4639C23.9234 27.3602 23.9817 27.2197 23.9822 27.0731V23.955C23.4903 24.0312 22.9908 24.0439 22.4958 23.993L22.4958 23.9932Z" fill="white"/>
</svg>
