<svg width="20" height="24" viewBox="0 0 20 24" fill="none" xmlns="http://www.w3.org/2000/svg">
<path fill-rule="evenodd" clip-rule="evenodd" d="M2.65263 0H17.1536C18.6189 0 19.8062 1.18733 19.8062 2.65263L19.8063 21.3474C19.8063 22.8127 18.619 24 17.1537 24H2.65263C1.18733 24 0 22.8127 0 21.3474V2.65263C0 1.18733 1.18733 0 2.65263 0ZM17.1537 22.2316C17.6337 22.2316 18.0379 21.8274 18.0379 21.3474V2.65263C18.0379 2.17261 17.6337 1.76842 17.1537 1.76842H2.65263C2.17261 1.76842 1.76842 2.17261 1.76842 2.65263V21.3474C1.76842 21.8274 2.17261 22.2316 2.65263 22.2316H17.1537ZM5.58316 17.8358H14.2232C14.7032 17.8358 15.1074 18.24 15.1074 18.72C15.1074 19.2 14.7032 19.6042 14.2232 19.6042H5.58316C5.10314 19.6042 4.69895 19.2 4.69895 18.72C4.69895 18.24 5.10314 17.8358 5.58316 17.8358ZM14.2232 13.8442H5.58316C5.10314 13.8442 4.69895 14.2484 4.69895 14.7284C4.69895 15.2084 5.10314 15.6126 5.58316 15.6126H14.2232C14.7032 15.6126 15.1074 15.2084 15.1074 14.7284C15.1074 14.2484 14.7032 13.8442 14.2232 13.8442ZM13.0358 7.2H14.9305L14.9305 7.20008C15.4105 7.20008 15.7895 7.60427 15.7894 8.08421C15.7894 8.56423 15.3852 8.96842 14.9052 8.96842H13.5157L12.2021 11.3179C12.0505 11.5959 11.7726 11.7727 11.4442 11.7727C11.1411 11.7727 10.8378 11.5958 10.6863 11.3179L8.31155 7.09895L7.50317 8.51366C7.35161 8.79163 7.07374 8.96844 6.74527 8.96844H4.85054C4.37052 8.96844 3.96633 8.56425 3.96633 8.08423C3.96633 7.60421 4.37052 7.20002 4.85054 7.20002H6.24001L7.579 4.85055C7.73056 4.57258 8.00843 4.39577 8.33689 4.39577C8.64001 4.39577 8.94323 4.57267 9.09479 4.85055L11.4695 9.06949L12.2779 7.65478C12.4295 7.37681 12.7073 7.2 13.0358 7.2Z" fill="white"/>
</svg>
