<svg width="26" height="30" viewBox="0 0 26 30" fill="none" xmlns="http://www.w3.org/2000/svg">
<path fill-rule="evenodd" clip-rule="evenodd" d="M16.653 1.40196L16.7641 1.34639C16.975 1.23651 17.2327 1.27693 17.3981 1.44743L18.0574 2.10672V2.10546C18.2279 2.27218 18.2696 2.5311 18.1597 2.74201L18.1041 2.85189V2.85063C17.9526 3.13734 17.9513 3.47835 18.0991 3.7663C18.1989 3.96964 18.286 4.18056 18.3605 4.39528C18.459 4.70346 18.7028 4.94343 19.0123 5.0394L19.1285 5.07603H19.1272C19.3545 5.14676 19.5073 5.35894 19.5061 5.59637V6.53101V6.52974C19.5073 6.76719 19.3545 6.97812 19.1272 7.05009L19.011 7.08798H19.0123C18.7028 7.1827 18.4591 7.42268 18.3605 7.73083C18.286 7.94555 18.1989 8.15647 18.0991 8.35981C17.9513 8.64779 17.9526 8.9888 18.1041 9.27548L18.1597 9.38536V9.3841C18.2696 9.59502 18.2292 9.85395 18.0574 10.0207L17.3981 10.6799V10.6787C17.2327 10.8504 16.9738 10.8909 16.7641 10.7797L16.653 10.7241C16.3675 10.5739 16.0252 10.5713 15.7385 10.7191C15.5339 10.8189 15.3243 10.9073 15.1095 10.9805C14.8014 11.0791 14.5614 11.3228 14.4667 11.6323L14.4288 11.7485C14.3568 11.9745 14.1459 12.1286 13.9085 12.1261H12.9738C12.7364 12.1286 12.5254 11.9745 12.4547 11.7485L12.4181 11.6323C12.3221 11.3228 12.0821 11.0791 11.7727 10.9805C11.558 10.9073 11.3483 10.8201 11.1437 10.7191C10.857 10.5713 10.5147 10.5739 10.2293 10.7241L10.1194 10.7797C9.90849 10.8909 9.64956 10.8504 9.48413 10.6787L8.82483 10.0194V10.0207C8.65433 9.85394 8.61391 9.59502 8.72379 9.3841L8.77937 9.27422V9.27548C8.92966 8.98877 8.93093 8.64777 8.78442 8.35981C8.68338 8.15647 8.59623 7.94682 8.52424 7.73083C8.42446 7.42265 8.18071 7.18268 7.87128 7.08798L7.75508 7.05009C7.52774 6.9781 7.37493 6.76718 7.37744 6.52974V5.59638C7.37491 5.35893 7.52773 5.14673 7.75508 5.07603L7.87128 5.03941C8.18071 4.94342 8.4232 4.70344 8.52424 4.39528C8.59623 4.17931 8.68338 3.96965 8.78442 3.7663C8.93093 3.47832 8.92966 3.13732 8.77937 2.85063L8.72379 2.74075V2.74202C8.61391 2.52983 8.65433 2.27217 8.82483 2.10546L9.48413 1.44617V1.44743C9.65084 1.27693 9.90976 1.23651 10.1207 1.34639L10.2306 1.40197H10.2293C10.516 1.55226 10.857 1.55479 11.145 1.40702C11.3483 1.30598 11.558 1.22009 11.7739 1.1481C12.0821 1.04706 12.3221 0.803299 12.4181 0.493874L12.4547 0.377678C12.5267 0.151601 12.7363 -0.00120882 12.9738 3.0601e-05H13.9084C14.1459 -0.0024954 14.3568 0.151591 14.4288 0.377678L14.4667 0.493874C14.5614 0.803299 14.8014 1.04833 15.1095 1.1481C15.3242 1.22009 15.5352 1.30598 15.7385 1.40702C16.0252 1.55479 16.3675 1.55226 16.653 1.40196ZM24.7739 15.2342H21.7262C21.6113 15.2342 21.5002 15.2809 21.4193 15.363C21.3372 15.4451 21.2918 15.555 21.2918 15.6712V25.6626C21.293 25.9026 21.4863 26.0971 21.7262 26.0996H24.7752C25.0152 26.0971 25.2084 25.9026 25.211 25.6626V15.6712C25.2097 15.5563 25.1642 15.4452 25.0821 15.363C25.0013 15.2809 24.8902 15.2342 24.774 15.2342H24.7739ZM14.7281 16.6639C14.7357 16.6589 14.7445 16.6526 14.7533 16.6488C14.8253 16.6109 14.9087 16.602 14.9857 16.6248C15.064 16.6488 15.1284 16.7018 15.1663 16.7738L15.1802 16.7978L19.8472 25.2194L20.6795 25.011V16.3089L17.0195 13.3092C16.7327 13.0655 16.3577 12.9543 15.985 13.0023L13.5184 13.2777C13.2039 13.308 12.9109 13.4494 12.6924 13.6768L8.99541 17.3759C8.55337 17.924 8.5319 18.6983 8.94111 19.2704C9.05478 19.4232 9.20886 19.5407 9.38695 19.6089C9.75449 19.7453 10.2673 19.6682 10.9266 19.2236L14.727 16.6623L14.7281 16.6639ZM4.52922 21.7499V24.2342L5.73033 24.2355C5.83895 24.2355 5.93873 24.2936 5.99304 24.387L8.91943 29.4555L8.92069 29.4567C9.23645 29.9809 9.91468 30.1552 10.4451 29.8495C10.9756 29.5439 11.165 28.8694 10.8695 28.3326L9.33116 25.6652C9.24654 25.5199 9.29579 25.3343 9.44104 25.2497C9.58628 25.165 9.7732 25.2143 9.85783 25.3595H9.86036L11.3987 28.0245C11.405 28.0384 11.4126 28.0522 11.4214 28.0649L11.789 28.7027L11.7991 28.7179C12.1173 29.237 12.7918 29.4087 13.3197 29.1043C13.8477 28.8 14.0384 28.1318 13.7479 27.595V27.5925L11.6374 23.94H11.6387C11.5983 23.8705 11.5869 23.7872 11.6084 23.7089C11.6286 23.6318 11.6804 23.5649 11.7499 23.5245C11.8951 23.4411 12.082 23.4916 12.1654 23.6369L14.2759 27.2894H14.2771C14.2834 27.3033 14.291 27.3172 14.2973 27.3298L14.6371 27.9209L14.6472 27.9361H14.6484C14.9617 28.4716 15.6462 28.6547 16.1855 28.3478C16.7172 28.0396 16.9042 27.3627 16.6061 26.8259C16.6048 26.8208 16.601 26.8158 16.5985 26.812L14.2316 22.7087C14.1622 22.5647 14.2152 22.3917 14.3541 22.3108C14.4931 22.23 14.6699 22.2704 14.7608 22.403L17.1277 26.5028C17.1302 26.5092 17.1328 26.5142 17.1365 26.5205L17.4902 27.1331C17.494 27.1369 17.4965 27.1432 17.499 27.1482C17.7415 27.541 18.1949 27.7507 18.6509 27.6837C18.8189 27.6673 18.9818 27.6193 19.1308 27.5423C19.2697 27.4716 19.391 27.3705 19.4844 27.2467C19.6891 26.9676 19.732 26.5496 19.444 26.0153L14.7886 17.3577L11.2673 19.7308C10.4211 20.3005 9.71511 20.38 9.17707 20.183C8.88909 20.0744 8.63902 19.8849 8.45588 19.6386C7.86354 18.824 7.90647 17.7088 8.56197 16.9434L9.92098 15.5882L7.12984 16.9093C7.08816 16.9282 7.0427 16.9384 6.99597 16.9384L4.52932 16.9068L4.52922 21.7499ZM3.48347 15.2343H0.434483C0.318287 15.2343 0.208407 15.281 0.127564 15.3631C0.0454682 15.4452 0 15.5551 0 15.6713V25.6627C0.001263 25.9014 0.194504 26.0959 0.434472 26.0984H3.48346C3.72343 26.0946 3.9154 25.9014 3.91793 25.6627V15.6713C3.91793 15.5551 3.8712 15.4452 3.78911 15.3631C3.70827 15.281 3.59841 15.2343 3.48347 15.2343ZM11.6739 5.91864C11.5842 5.78476 11.6133 5.60415 11.7409 5.50438C11.8684 5.40587 12.0503 5.42355 12.1577 5.54353L12.8725 6.463L14.7784 4.99538C14.8428 4.9436 14.9249 4.9196 15.007 4.92971C15.0878 4.93855 15.1623 4.98149 15.2128 5.0459C15.2634 5.11158 15.2848 5.19494 15.2735 5.27577C15.2621 5.35786 15.2192 5.43112 15.1522 5.48037L13.0203 7.12102C13.0152 7.12481 13.0102 7.12986 13.0051 7.13365C12.9407 7.18291 12.8599 7.20565 12.7803 7.19554C12.6995 7.18544 12.6262 7.14376 12.5769 7.07935L11.6739 5.91864ZM13.4409 2.4593H13.4421C15.1611 2.46056 16.6401 3.67558 16.9747 5.36171C17.3094 7.04655 16.4064 8.73537 14.8176 9.392C13.23 10.05 11.3986 9.49304 10.444 8.06457C9.48916 6.63487 9.67736 4.73052 10.8924 3.51534C11.5681 2.83711 12.485 2.45822 13.4424 2.45946L13.4409 2.4593ZM15.5564 3.94586H15.5577C14.5472 2.93672 12.966 2.78136 11.7785 3.57454C10.5913 4.36772 10.1303 5.88963 10.6759 7.20821C11.2228 8.52804 12.6247 9.277 14.0253 8.99915C15.4247 8.72004 16.4338 7.49239 16.4338 6.06387C16.4351 5.26945 16.1194 4.50785 15.5573 3.94583L15.5564 3.94586Z" fill="white"/>
</svg>
