<svg width="20" height="20" viewBox="0 0 20 20" fill="none" xmlns="http://www.w3.org/2000/svg">
<path d="M8.13938 0C6.41997 0.000868016 4.7449 0.569752 3.35421 1.62515C1.96358 2.68066 0.928687 4.16842 0.397747 5.87551C-0.133007 7.58257 -0.132608 9.42118 0.399098 11.1281C0.930804 12.8349 1.96642 14.3221 3.35769 15.3767C4.74883 16.4314 6.42406 16.9994 8.14365 16.9993C9.86306 16.9992 11.5384 16.431 12.9294 15.376L16.9848 19.6091V19.6092C17.3077 19.9463 17.7783 20.0779 18.2194 19.9545C18.6604 19.8311 19.0049 19.4716 19.1231 19.0112C19.2413 18.5508 19.1152 18.0596 18.7923 17.7226L14.7368 13.4895C15.9212 11.7901 16.46 9.6927 16.2489 7.60279C16.0379 5.51283 15.092 3.57881 13.5941 2.17443C12.0962 0.770185 10.1528 -0.00461348 8.1394 5.29795e-05L8.13938 0ZM8.13938 14.3327C6.65729 14.3327 5.23587 13.7181 4.18793 12.6242C3.13992 11.5303 2.55115 10.0466 2.55115 8.49967C2.55115 6.95271 3.13992 5.46897 4.18793 4.37513C5.23595 3.28121 6.65734 2.66666 8.13938 2.66666C9.62142 2.66666 11.0429 3.28121 12.0908 4.37513C13.1388 5.46906 13.7276 6.95271 13.7276 8.49967C13.7259 10.0462 13.1367 11.5287 12.089 12.6223C11.0414 13.7159 9.62091 14.331 8.13938 14.3327Z" fill="#939598"/>
</svg>
