<svg width="20" height="20" viewBox="0 0 20 20" fill="none" xmlns="http://www.w3.org/2000/svg">
<path fill-rule="evenodd" clip-rule="evenodd" d="M6.59421 19.3555C7.00688 19.7682 7.56657 20 8.1502 20H11.4613C12.0378 20.0001 12.5914 19.7739 13.0029 19.3701C13.4144 18.9663 13.651 18.4171 13.6618 17.8406C13.6612 17.6798 13.7187 17.5241 13.8236 17.4022C13.9286 17.2803 14.074 17.2004 14.2331 17.177C14.3923 17.1536 14.5545 17.1885 14.6901 17.2751C15.1916 17.5735 15.7929 17.6552 16.3559 17.5013C16.9183 17.3456 17.3979 16.9767 17.6926 16.473L19.3482 13.6041C19.6388 13.0966 19.7165 12.4946 19.5643 11.93C19.412 11.3652 19.0422 10.8839 18.5358 10.5913C18.435 10.5355 18.3511 10.4535 18.2932 10.354C18.2353 10.2543 18.2054 10.1409 18.2068 10.0257C18.2056 9.90793 18.2367 9.7921 18.2964 9.69064C18.3562 9.58918 18.4426 9.50595 18.5461 9.44988C19.05 9.15754 19.4175 8.67721 19.5678 8.11439C19.7182 7.55149 19.6392 6.95204 19.3482 6.4473L17.6926 3.57841C17.3979 3.07472 16.9183 2.70582 16.3559 2.55013C15.7895 2.39694 15.1852 2.47848 14.6798 2.77635C14.5809 2.83733 14.4669 2.86962 14.3507 2.86962C14.2346 2.86962 14.1206 2.83732 14.0217 2.77635C13.9201 2.71891 13.8358 2.63512 13.7779 2.53374C13.72 2.43235 13.6905 2.31724 13.6926 2.20052C13.6926 1.61689 13.4608 1.05721 13.0481 0.644525C12.6354 0.231836 12.0758 0 11.4921 0H8.18107C7.59567 0 7.03438 0.233213 6.62146 0.648144C6.20846 1.06305 5.97782 1.6254 5.98056 2.2108C5.98112 2.37162 5.92368 2.52731 5.81868 2.64917C5.71378 2.77112 5.56838 2.85105 5.40922 2.87443C5.25006 2.89781 5.0878 2.86294 4.95228 2.77634C4.45815 2.46039 3.85636 2.36005 3.28646 2.49871C2.72404 2.65439 2.24445 3.02329 1.9497 3.52698L0.294175 6.39588C0.00352196 6.90342 -0.0741602 7.50537 0.0780722 8.07004C0.230319 8.63479 0.60017 9.11609 1.10651 9.40874C1.20734 9.46449 1.29121 9.54651 1.34913 9.64604C1.40705 9.74566 1.43693 9.85909 1.43557 9.97429C1.43669 10.0921 1.40568 10.2079 1.34591 10.3094C1.28614 10.4108 1.19978 10.4941 1.09623 10.5501C0.592287 10.8425 0.224834 11.3228 0.0745289 11.8856C-0.0758465 12.4485 0.00312525 13.048 0.294169 13.5527L1.9497 16.4216C2.24444 16.9253 2.72403 17.2942 3.28646 17.4499C3.85281 17.6031 4.45709 17.5215 4.96255 17.2236C5.06145 17.1627 5.17545 17.1304 5.2916 17.1304C5.40775 17.1304 5.52176 17.1627 5.62065 17.2236C5.72226 17.2811 5.80653 17.3649 5.86445 17.4663C5.92238 17.5676 5.95186 17.6828 5.94969 17.7995C5.94969 18.3831 6.18154 18.9428 6.59421 19.3555ZM6.39185 15.8869C6.05749 15.693 5.67808 15.5902 5.29159 15.5887L5.29169 15.5887C4.89862 15.5895 4.51236 15.6922 4.17087 15.8869C4.02298 15.9769 3.84479 16.0029 3.6773 15.9589C3.50835 15.9126 3.3644 15.8018 3.27627 15.6504L1.62074 12.7815C1.53205 12.6291 1.50827 12.4474 1.55463 12.2774C1.60106 12.1072 1.71377 11.9629 1.86753 11.8766C2.31668 11.6182 2.66027 11.2097 2.83773 10.7228C3.01519 10.2361 3.01519 9.70218 2.83773 9.21543C2.66027 8.7286 2.31668 8.32001 1.86753 8.06166C1.71618 7.97562 1.60588 7.83231 1.56137 7.66401C1.51687 7.49578 1.54193 7.31664 1.63102 7.16706L3.28655 4.29816C3.37461 4.14617 3.51969 4.03563 3.68968 3.9912C3.85965 3.94678 4.04032 3.97216 4.19143 4.06166C4.52458 4.25887 4.90457 4.36298 5.29169 4.36298C5.67882 4.36298 6.05881 4.25888 6.39195 4.06166C6.72822 3.86877 7.00722 3.59001 7.2005 3.25405C7.3938 2.91803 7.49446 2.53668 7.49221 2.14906C7.49221 1.9745 7.56154 1.80715 7.68493 1.68368C7.8084 1.56029 7.97574 1.49096 8.15031 1.49096H11.4614C11.6368 1.49369 11.8042 1.56527 11.9274 1.69035C12.0504 1.81535 12.1195 1.98382 12.1195 2.15935C12.1248 2.94542 12.5472 3.66948 13.2289 4.06111C13.9103 4.45266 14.7486 4.45289 15.4304 4.06167C15.5783 3.97161 15.7565 3.94567 15.924 3.98969C16.0929 4.03596 16.2369 4.14674 16.325 4.29817L18.032 7.16707C18.1214 7.31816 18.1468 7.49884 18.1024 7.66883C18.058 7.83882 17.9474 7.98391 17.7954 8.07195C17.3463 8.33032 17.0027 8.73889 16.8252 9.22572C16.6478 9.71247 16.6478 10.2464 16.8252 10.7331C17.0027 11.2199 17.3463 11.6285 17.7954 11.8869C17.9468 11.9729 18.0571 12.1162 18.1016 12.2845C18.1461 12.4528 18.121 12.6319 18.032 12.7815L16.325 15.6504C16.237 15.8024 16.0919 15.9129 15.9219 15.9573C15.7519 16.0018 15.5712 15.9764 15.4201 15.8869C15.087 15.6897 14.707 15.5856 14.3199 15.5856C13.9327 15.5856 13.5528 15.6897 13.2196 15.8869C12.8833 16.0798 12.6043 16.3585 12.4111 16.6945C12.2178 17.0305 12.1171 17.4119 12.1194 17.7995C12.1194 17.9741 12.05 18.1414 11.9266 18.2649C11.8032 18.3883 11.6358 18.4576 11.4613 18.4576H8.1502C7.97476 18.4549 7.80734 18.3833 7.68418 18.2582C7.56111 18.1332 7.49211 17.9647 7.49211 17.7892C7.49363 17.4031 7.39257 17.0235 7.19921 16.6893C7.00592 16.355 6.72725 16.0781 6.39185 15.8869ZM7.07919 12.7009C7.80231 13.4241 8.78311 13.8303 9.80577 13.8303L9.80573 13.8304C10.4826 13.8304 11.1475 13.6522 11.7338 13.3137C12.32 12.9753 12.8067 12.4886 13.1451 11.9024C13.4836 11.3161 13.6618 10.6512 13.6618 9.97433C13.6618 8.95171 13.2555 7.97091 12.5324 7.24775C11.8092 6.52458 10.8284 6.11833 9.80577 6.11833C8.78315 6.11833 7.80236 6.52458 7.07919 7.24775C6.35602 7.97087 5.94977 8.95171 5.94977 9.97433C5.94977 10.997 6.35602 11.9777 7.07919 12.7009ZM8.16976 8.33828C8.60365 7.9044 9.19218 7.66066 9.80577 7.66066C10.4194 7.66066 11.0079 7.90438 11.4418 8.33828C11.8757 8.77217 12.1194 9.36069 12.1194 9.97429C12.1194 10.5879 11.8757 11.1764 11.4418 11.6103C11.0079 12.0442 10.4194 12.2879 9.80577 12.2879C9.19218 12.2879 8.60365 12.0442 8.16976 11.6103C7.73589 11.1764 7.49214 10.5879 7.49214 9.97429C7.49214 9.36069 7.73587 8.77217 8.16976 8.33828Z" fill="#939598"/>
</svg>
