<svg width="25" height="24" viewBox="0 0 25 24" fill="none" xmlns="http://www.w3.org/2000/svg">
<path d="M4.37845 0.000129404C5.73867 0.000129404 6.84425 1.10722 6.84425 2.46679C6.84425 3.82777 5.73951 4.9326 4.37845 4.9326C3.01982 4.9326 1.91178 3.82551 1.91178 2.46679C1.91178 1.10808 3.01887 0.000129404 4.37845 0.000129404ZM0.645025 11.068H23.9229C24.28 11.068 24.5696 11.3576 24.5696 11.7147V13.7799C24.5696 14.137 24.2799 14.4266 23.9229 14.4266H22.0565C21.9455 14.8287 21.8112 15.2184 21.6551 15.595C21.4975 15.9762 21.315 16.3473 21.1109 16.7067L22.4316 18.0273C22.6839 18.2796 22.6839 18.6896 22.4316 18.9419L19.5116 21.8619C19.2593 22.1142 18.8494 22.1142 18.597 21.8619L17.2756 20.5405C16.9162 20.7447 16.5451 20.9272 16.1639 21.0855C15.7881 21.2416 15.3976 21.3759 14.9962 21.4869V23.3533C14.9962 23.7104 14.7066 24 14.3495 24H10.2201C9.86304 24 9.57343 23.7104 9.57343 23.3533V21.4869C9.17128 21.3759 8.78157 21.2416 8.40501 21.0855C8.02382 20.9279 7.65274 20.7455 7.29329 20.5414L5.97266 21.862C5.72036 22.1143 5.31045 22.1143 5.05807 21.862L2.13809 18.942C1.8858 18.6897 1.8858 18.2798 2.13809 18.0274L3.45948 16.706C3.25528 16.3466 3.07281 15.9747 2.91445 15.5943C2.75844 15.2185 2.62407 14.8288 2.51305 14.4267H0.646707C0.289603 14.4267 0 14.137 0 13.7799V11.7148C0 11.3577 0.289625 11.0681 0.646707 11.0681L0.645025 11.068ZM23.2759 12.3622H17.5634C17.2404 15.0244 14.9704 17.0335 12.2848 17.0335C9.5986 17.0335 7.32926 15.018 7.00556 12.3622H1.29307V13.1332H3.01587C3.31165 13.1355 3.57878 13.3405 3.64548 13.6409C3.75651 14.1401 3.91177 14.6284 4.10746 15.0997C4.30003 15.5632 4.52824 16.0041 4.78837 16.4179C4.98094 16.671 4.96072 17.0344 4.73016 17.2657L3.51052 18.4854L5.51585 20.4907L6.73474 19.2718C6.94517 19.0645 7.27892 19.0203 7.53831 19.1856C7.96374 19.4565 8.41946 19.695 8.90007 19.8937C9.35422 20.0824 9.82469 20.2338 10.3053 20.3432C10.622 20.3851 10.8673 20.6561 10.8673 20.9844V22.7064H13.7025V20.9836C13.7049 20.6878 13.9099 20.4207 14.2103 20.354C14.7095 20.243 15.1978 20.0877 15.6691 19.892C16.1333 19.6994 16.5735 19.4712 16.9866 19.2119C17.2405 19.0194 17.6031 19.0388 17.8344 19.2701L19.054 20.4898L21.0593 18.4844L19.8405 17.2656C19.6331 17.0551 19.5889 16.7214 19.7543 16.462C20.0252 16.0366 20.2636 15.5808 20.4623 15.1002C20.651 14.6461 20.8024 14.1756 20.9118 13.695C20.9538 13.3783 21.2247 13.133 21.5531 13.133H23.275V12.362L23.2759 12.3622ZM16.2559 12.3622H8.31135C8.62498 14.3062 10.3043 15.7393 12.2839 15.7393C14.2583 15.7393 15.9415 14.3062 16.2559 12.3622ZM17.8583 8.63566H22.5195C22.344 7.49126 21.3487 6.63731 20.1889 6.63731C19.0282 6.63731 18.0329 7.49445 17.8583 8.63566ZM23.1943 9.92985H17.1837C16.8266 9.92985 16.537 9.64022 16.537 9.28314V8.99589C16.537 6.98896 18.1814 5.34398 20.1889 5.34398C22.1974 5.34398 23.8417 6.98751 23.8417 8.99589V9.28314C23.8417 9.64025 23.5521 9.92985 23.195 9.92985H23.1943ZM9.95346 8.63566H14.6146C14.4392 7.49126 13.4439 6.63731 12.284 6.63731C11.1234 6.63731 10.1281 7.49445 9.95346 8.63566ZM15.2894 9.92985H9.27889C8.92179 9.92985 8.63218 9.64022 8.63218 9.28314V8.99589C8.63218 6.98896 10.2766 5.34398 12.2841 5.34398C14.2926 5.34398 15.9369 6.98751 15.9369 8.99589V9.28314C15.9369 9.64025 15.6472 9.92985 15.2902 9.92985H15.2894ZM20.1891 0C21.5477 0 22.6558 1.10784 22.6558 2.46667C22.6558 3.82689 21.5487 4.93247 20.1891 4.93247C18.8281 4.93247 17.7233 3.82773 17.7233 2.46667C17.7233 1.10804 18.8304 0 20.1891 0ZM20.1891 1.29419C19.5409 1.29419 19.0176 1.8175 19.0176 2.46647C19.0176 3.11393 19.5416 3.638 20.1891 3.638C20.8382 3.638 21.3614 3.11631 21.3614 2.46647C21.3614 1.81513 20.8405 1.29419 20.1891 1.29419ZM12.2849 0C13.6451 0 14.7507 1.10709 14.7507 2.46667C14.7507 3.82764 13.646 4.93247 12.2849 4.93247C10.9263 4.93247 9.81825 3.82538 9.81825 2.46667C9.81825 1.10795 10.9253 0 12.2849 0ZM12.2849 1.29419C11.6367 1.29419 11.1126 1.8175 11.1126 2.46647C11.1126 3.11471 11.6359 3.638 12.2849 3.638C12.9324 3.638 13.4564 3.11393 13.4564 2.46647C13.4564 1.81739 12.9347 1.29419 12.2849 1.29419ZM2.04926 8.63553H6.71044C6.53497 7.49113 5.53967 6.63718 4.37985 6.63718C3.2207 6.63718 2.22625 7.49348 2.04926 8.63553ZM7.38522 9.92972H1.37469C1.01759 9.92972 0.727987 9.64009 0.727987 9.28301V8.99576C0.727987 6.98654 2.37076 5.34385 4.37989 5.34385C6.38836 5.34385 8.03266 6.98738 8.03266 8.99576V9.28301C8.03266 9.64012 7.74304 9.92972 7.38596 9.92972H7.38522ZM4.37985 1.29423C3.73161 1.29423 3.20757 1.81754 3.20757 2.46651C3.20757 3.11475 3.73088 3.63804 4.37985 3.63804C5.02731 3.63804 5.55138 3.11398 5.55138 2.46651C5.55138 1.81744 5.02969 1.29423 4.37985 1.29423Z" fill="white"/>
</svg>
